<?xml version="1.0" standalone="no"?>
<!DOCTYPE svg PUBLIC "-//W3C//DTD SVG 20010904//EN"
 "http://www.w3.org/TR/2001/REC-SVG-20010904/DTD/svg10.dtd">
<svg version="1.0" xmlns="http://www.w3.org/2000/svg"
 width="512.000000pt" height="512.000000pt" viewBox="0 0 512.000000 512.000000"
 preserveAspectRatio="xMidYMid meet">
<metadata>
Created by potrace 1.14, written by Peter Selinger 2001-2017
</metadata>
<g transform="translate(0.000000,512.000000) scale(0.100000,-0.100000)"
fill="#000000" stroke="none">
<path d="M1139 5106 c-2 -3 -24 -7 -49 -11 -478 -69 -887 -420 -1030 -885 -61
-196 -59 -123 -56 -1690 2 -1549 -1 -1456 52 -1625 30 -98 100 -244 157 -331
51 -77 141 -180 207 -240 25 -21 54 -47 65 -57 40 -38 161 -111 249 -152 110
-52 164 -71 276 -96 81 -18 151 -19 1550 -19 1238 0 1474 3 1526 15 34 8 72
16 85 19 13 2 61 18 107 35 370 135 650 425 776 801 67 201 64 138 65 1675 0
811 -4 1417 -10 1455 -80 556 -496 989 -1048 1090 -102 18 -162 19 -1512 19
-773 0 -1408 -1 -1410 -3z"/>
</g>
</svg>
