<?xml version="1.0" standalone="no"?>
<!DOCTYPE svg PUBLIC "-//W3C//DTD SVG 20010904//EN"
 "http://www.w3.org/TR/2001/REC-SVG-20010904/DTD/svg10.dtd">
<svg version="1.0" xmlns="http://www.w3.org/2000/svg"
 width="260.000000pt" height="260.000000pt" viewBox="0 0 260.000000 260.000000"
 preserveAspectRatio="xMidYMid meet">
<metadata>
Created by potrace 1.14, written by Peter Selinger 2001-2017
</metadata>
<g transform="translate(0.000000,260.000000) scale(0.100000,-0.100000)"
fill="#000000" stroke="none">
<path d="M1586 2343 c-4 -4 -17 -8 -29 -10 -12 -1 -29 -4 -37 -6 -8 -2 -30 -7
-48 -11 -18 -4 -30 -12 -26 -17 3 -5 -3 -9 -13 -9 -16 -1 -36 -20 -130 -125
-10 -12 -17 -19 -16 -17 1 2 -30 35 -68 73 -94 93 -133 110 -254 113 -53 1
-98 -1 -101 -6 -3 -5 -10 -6 -15 -3 -5 4 -15 3 -21 -2 -7 -4 -18 -8 -25 -9
-13 -2 -91 -54 -80 -54 4 0 -1 -8 -10 -18 -10 -11 -21 -17 -25 -15 -5 2 -8 -3
-8 -12 0 -9 -5 -13 -10 -10 -6 3 -10 2 -10 -3 0 -5 -9 -19 -20 -32 -11 -13
-20 -32 -20 -44 0 -18 -2 -19 -11 -6 -8 11 -9 6 -7 -22 2 -20 1 -35 -2 -33 -3
2 -10 -8 -17 -21 -8 -18 -8 -22 0 -17 7 4 7 0 -1 -9 -9 -11 -14 -51 -15 -116
-1 -55 -4 -99 -6 -96 -2 2 -10 -1 -18 -7 -10 -9 -13 -8 -13 1 0 7 -8 10 -20 7
-11 -3 -20 -2 -20 2 0 3 -39 4 -87 0 -64 -4 -100 -12 -133 -30 -25 -12 -48
-22 -52 -21 -4 1 -4 -6 -1 -15 4 -9 2 -14 -3 -10 -11 6 -57 -57 -57 -79 0 -9
-6 -13 -15 -9 -12 4 -12 3 -3 -9 9 -11 8 -17 -4 -29 -9 -10 -11 -18 -5 -22 6
-4 4 -15 -6 -30 -9 -14 -14 -32 -10 -40 3 -8 2 -15 -2 -15 -4 0 -9 -11 -10
-26 -1 -18 2 -23 11 -18 9 6 9 5 0 -7 -6 -8 -10 -33 -9 -57 2 -26 -1 -39 -7
-35 -6 3 -7 2 -4 -4 3 -5 9 -23 11 -39 12 -65 16 -77 26 -89 8 -10 7 -14 -2
-18 -8 -3 -6 -6 5 -6 10 -1 15 -5 12 -11 -3 -5 -1 -15 5 -22 5 -7 31 -44 56
-83 44 -66 80 -103 97 -97 4 1 7 -1 7 -6 0 -15 123 -56 135 -44 9 9 59 8 66
-2 4 -4 15 -3 26 2 15 8 24 8 33 -1 10 -9 11 -9 6 1 -5 8 1 12 17 12 19 0 24
-5 23 -22 0 -13 -7 -27 -14 -31 -6 -4 -12 -15 -12 -23 0 -8 -5 -12 -10 -9 -6
3 -10 -3 -10 -14 0 -11 -5 -23 -11 -26 -6 -4 -8 -13 -5 -21 3 -8 2 -14 -3 -14
-5 0 -7 -10 -7 -22 1 -13 -2 -31 -6 -40 -5 -11 -5 -18 1 -18 6 0 6 -11 1 -30
-5 -16 -5 -30 0 -30 10 0 8 -20 -4 -39 -5 -7 -5 -16 0 -20 5 -3 9 -26 10 -51
0 -45 22 -110 36 -110 5 0 7 -3 6 -7 -3 -10 27 -54 33 -49 2 2 15 -11 29 -30
14 -18 29 -34 33 -34 4 0 17 -9 29 -20 12 -10 25 -17 30 -14 4 3 8 0 8 -5 0
-6 3 -10 8 -10 4 1 9 1 12 -1 3 -1 16 -4 30 -6 13 -2 28 -10 32 -17 6 -9 8 -9
8 2 0 10 3 11 13 3 8 -7 18 -7 27 -2 9 6 20 4 29 -3 11 -9 15 -9 19 1 3 10 7
10 18 2 7 -7 19 -8 26 -4 18 11 48 12 54 2 3 -5 13 -3 22 4 11 9 14 9 9 1 -5
-7 9 -5 35 7 23 10 46 16 50 14 4 -3 8 0 8 6 0 6 4 9 9 5 5 -3 12 -1 16 5 4 6
11 8 16 5 5 -4 9 -1 9 6 0 7 3 9 7 6 3 -4 12 -2 18 3 27 23 145 13 145 -11 0
-5 6 -6 14 -3 8 3 17 1 21 -5 3 -6 15 -11 25 -11 10 0 25 -7 34 -15 11 -11 17
-12 22 -4 5 8 11 6 21 -7 16 -21 22 -22 34 -2 5 7 9 8 9 3 0 -14 60 -15 60 -1
0 8 3 7 8 -1 8 -13 79 -13 100 0 7 5 12 4 12 -3 0 -7 7 -7 22 1 12 7 29 13 38
14 29 4 60 17 60 25 0 4 11 11 25 14 14 4 23 11 20 16 -3 5 7 16 22 24 15 8
24 15 19 16 -5 0 8 16 28 35 21 19 34 35 30 35 -5 0 -3 5 4 12 7 7 12 18 12
26 0 8 8 21 18 29 9 7 13 13 7 12 -21 -3 -29 2 -17 10 7 4 14 19 15 32 0 13 6
27 12 31 6 5 6 8 -2 8 -7 0 -13 7 -13 16 0 9 5 12 12 8 7 -5 8 -3 2 7 -12 21
-13 119 0 119 8 0 8 3 1 8 -6 4 -12 21 -13 37 -1 17 -7 32 -12 33 -6 2 -8 7
-5 12 3 5 -2 16 -11 24 -9 10 -11 16 -4 16 7 0 -2 13 -19 29 -17 16 -31 32
-31 36 0 3 -7 14 -16 23 -12 12 -13 17 -4 20 7 3 15 -1 19 -7 4 -6 28 -12 54
-14 26 -1 47 -5 47 -8 0 -4 15 -6 34 -5 19 0 32 4 29 9 -2 4 1 7 6 7 6 0 11
-5 11 -10 0 -11 41 -7 61 6 8 5 9 3 4 -6 -6 -10 -4 -12 9 -7 10 4 20 7 22 7 3
0 3 4 0 8 -3 5 1 9 9 9 8 0 15 -5 15 -11 0 -5 6 -1 14 10 8 10 17 16 21 12 8
-8 67 50 61 60 -2 4 2 13 10 20 8 7 14 9 14 5 1 -4 11 10 22 32 12 22 21 43
20 48 -1 4 3 7 8 7 6 0 10 7 10 15 0 8 5 15 10 15 6 0 10 9 10 19 0 11 6 26
13 33 8 7 13 21 11 31 -1 9 2 19 7 23 5 3 7 10 4 15 -4 5 -2 9 2 9 10 0 13 15
16 92 1 32 5 58 8 58 6 0 1 30 -15 99 -8 35 -30 81 -38 81 -5 0 -8 7 -8 15 0
9 -7 18 -15 21 -8 3 -17 14 -20 25 -4 10 -13 19 -21 19 -8 0 -12 5 -9 10 3 6
-1 10 -10 10 -9 0 -13 5 -10 10 6 9 -8 14 -27 11 -5 0 -7 3 -5 8 1 5 -2 9 -7
9 -5 0 -12 5 -16 12 -4 6 -17 12 -28 13 -12 1 -22 5 -22 9 0 4 -7 5 -15 2 -8
-4 -15 -1 -15 6 0 9 -3 10 -13 1 -8 -6 -17 -8 -21 -4 -9 9 -46 11 -46 3 0 -4
-20 -4 -45 0 -28 4 -45 3 -45 -3 0 -6 -3 -7 -7 -4 -3 4 -11 3 -17 -2 -7 -6
-16 -4 -24 5 -7 8 -8 14 -3 14 6 0 8 7 5 15 -4 8 -7 48 -8 87 0 40 -5 79 -9
86 -5 7 -3 12 4 12 7 0 8 4 2 13 -5 6 -15 31 -23 55 -7 23 -17 42 -22 42 -5 0
-7 4 -4 9 3 5 -1 11 -9 15 -8 3 -15 10 -15 16 0 18 -104 115 -135 127 -16 6
-39 14 -50 19 -11 4 -27 8 -35 10 -8 2 -16 8 -18 13 -3 8 -10 7 -24 0 -16 -8
-19 -8 -13 1 6 9 3 9 -12 2 -11 -6 -25 -7 -34 -1 -9 4 -19 5 -23 2z m142 -117
c42 -22 86 -67 115 -116 25 -43 59 -160 59 -205 1 -46 -24 -149 -49 -202 -32
-70 -110 -149 -161 -162 -61 -15 -112 -20 -112 -11 0 4 -15 11 -34 14 -123 23
-209 235 -171 418 38 184 148 295 278 283 26 -3 60 -11 75 -19z m-673 -27 c92
-56 147 -183 150 -349 3 -172 -47 -282 -152 -334 -54 -27 -107 -34 -118 -15
-4 6 -13 8 -21 5 -8 -3 -14 -1 -14 4 0 5 -9 12 -20 15 -31 10 -89 74 -118 130
-128 250 1 609 208 579 19 -3 58 -19 85 -35z m-551 -520 c23 -11 53 -33 67
-47 31 -32 88 -130 95 -163 15 -77 18 -101 17 -165 0 -92 -33 -167 -92 -215
-43 -34 -54 -38 -106 -43 -63 -5 -108 15 -170 78 -52 52 -64 73 -88 143 -23
67 -27 96 -24 151 8 132 54 224 137 269 44 25 108 21 164 -8z m1711 10 c36
-11 75 -45 103 -91 102 -168 26 -443 -148 -533 -41 -21 -144 -32 -154 -16 -4
6 -15 11 -24 11 -9 0 -38 22 -64 48 -46 48 -62 85 -72 164 -2 21 -7 42 -11 48
-4 6 -2 16 3 23 5 7 12 30 15 52 15 113 88 232 169 276 66 36 111 40 183 18z
m-890 -370 c4 -6 13 -8 21 -5 7 3 16 1 20 -5 3 -6 12 -8 20 -5 8 3 14 1 14 -4
0 -6 7 -10 16 -10 44 0 162 -107 226 -205 22 -33 85 -105 142 -160 115 -112
146 -165 150 -254 4 -71 -18 -164 -47 -205 -30 -42 -74 -85 -81 -78 -3 3 -6 1
-6 -5 0 -6 -12 -14 -27 -18 -16 -5 -35 -10 -43 -13 -8 -3 -53 -5 -100 -6 -76
0 -96 4 -185 39 -120 48 -178 51 -277 15 -38 -13 -68 -28 -68 -32 0 -5 -4 -7
-8 -4 -5 3 -27 -1 -50 -9 -26 -9 -68 -13 -116 -11 -98 5 -169 37 -218 97 -32
39 -41 56 -56 109 -11 36 -5 189 7 204 8 9 10 16 7 16 -17 0 62 94 153 183 56
54 101 102 101 108 0 6 19 37 42 68 47 64 131 136 177 152 17 6 31 15 31 20 0
4 7 6 15 3 8 -4 15 -1 15 4 0 6 11 9 24 6 14 -2 28 0 31 6 8 13 62 13 70 -1z"/>
</g>
</svg>
